<svg
      xmlns="http://www.w3.org/2000/svg"
      width="512"
      height="512"
      enableBackground="new 0 0 512 512"
      viewBox="0 0 511.974 511.974"
    >
      <path
        fill="#98bce5"
        d="M399.254 148.621v-4.87c0-17-9-32.74-23.66-41.36l-2.19-1.29c-3.2-1.88-7.3-1.2-9.72 1.62l-99.2 115.72-139.06 69.7 12.847 33.69 275.767-80.097z"
        data-original="#98bce5"
      ></path>
      <path
        fill="#efe2dd"
        d="M125.424 288.141h-82.93c-18.9 0-34.29 14.98-34.96 33.7l32.655 29.166 71.194 4.794 26.889-58.266z"
        data-original="#efe2dd"
      ></path>
      <path
        fill="#7bacdf"
        d="M495.474 280.731v86.15H65.094l21.2-27.89 39.13-50.85 159.18-43.2c4.9-1.33 9.31-4.05 12.7-7.84l74.34-82.97c3.14-3.5 7.62-5.51 12.33-5.51h84.67c7.25 0 13.13 5.88 13.13 13.13v79.51c0 2.61.8 5.15 2.3 7.29l2.29 3.28a50.39 50.39 0 019.11 28.9z"
        data-original="#7bacdf"
      ></path>
      <path
        fill="#5f99d7"
        d="M489.634 324.051H230.486c-9.705 0-11.543-13.794-2.177-16.336l74.365-20.182c4.9-1.33 9.31-4.05 12.7-7.84l74.34-82.97c3.14-3.5 7.62-5.51 12.33-5.51h79.73v-29.462c0-7.251-5.879-13.13-13.13-13.13h-84.67c-4.71 0-9.19 2.01-12.33 5.51l-74.34 82.97c-3.39 3.79-7.8 6.51-12.7 7.84l-159.18 43.2-39.13 50.85-21.2 27.89h430.38v-42.398a40.031 40.031 0 00-5.84-.432z"
        data-original="#5f99d7"
      ></path>
      <path
        fill="#f3eae6"
        d="M132.504 349.051l-125-27.22v41.73c0 8.66 5.8 16.24 14.16 18.5l108.47 29.23c.64.18 1.29.31 1.95.41l26.74-6.854v-40.149z"
        data-original="#f3eae6"
      ></path>
      <path
        fill="#faf7f7"
        d="M504.474 363.891v33.2c0 8.2-6.65 14.84-14.84 14.84h-354.68c-.96 0-1.93-.07-2.87-.23l.42-62.65h357.13c8.19 0 14.84 6.65 14.84 14.84z"
        data-original="#faf7f7"
      ></path>
      <circle
        cx="403.862"
        cy="267.846"
        r="50.563"
        fill="#f3eae6"
        data-original="#f3eae6"
      ></circle>
      <path
        fill="#5f99d7"
        d="M409.77 248.951l1.421 4.374a6.212 6.212 0 005.907 4.292h4.599c6.017 0 8.519 7.7 3.651 11.236l-3.721 2.703a6.21 6.21 0 00-2.256 6.944l1.421 4.374c1.859 5.723-4.69 10.481-9.558 6.944l-3.721-2.703a6.21 6.21 0 00-7.302 0l-3.721 2.703c-4.868 3.537-11.417-1.222-9.558-6.944l1.421-4.374a6.21 6.21 0 00-2.256-6.944l-3.721-2.703c-4.868-3.537-2.366-11.236 3.651-11.236h4.599a6.21 6.21 0 005.907-4.292l1.421-4.374c1.86-5.723 9.956-5.723 11.816 0z"
        data-original="#5f99d7"
      ></path>
      <path
        d="M502.974 345.984v-65.253c0-11.937-3.617-23.417-10.46-33.198l-2.296-3.282a5.197 5.197 0 01-.943-2.994v-79.506c0-11.373-9.252-20.625-20.625-20.625h-14.223a7.5 7.5 0 000 15h14.223a5.63 5.63 0 015.625 5.625v79.506a20.12 20.12 0 003.653 11.593l2.296 3.282a42.703 42.703 0 017.751 24.6v60.82H133.308l-33.847-7.37 30.361-39.463 9.859-2.676 4.889 11.212a7.502 7.502 0 009.873 3.877 7.5 7.5 0 003.877-9.873l-4.006-9.189 21.308-5.783 6.15 11.969a7.5 7.5 0 006.677 4.074 7.5 7.5 0 006.664-10.93l-4.691-9.13 23.699-6.432 6.478 9.568a7.49 7.49 0 006.217 3.296 7.46 7.46 0 004.198-1.291 7.5 7.5 0 002.005-10.416l-3.596-5.311 21.442-5.819 5.162 8.488a7.495 7.495 0 0010.306 2.511 7.5 7.5 0 002.511-10.305l-2.909-4.784 20.633-5.6a34.334 34.334 0 001.798-.558l4.336 6.617a7.494 7.494 0 0010.384 2.162 7.5 7.5 0 002.162-10.384l-4.037-6.16a34.284 34.284 0 001.682-1.747l14.796-16.514 7.026 11.046a7.493 7.493 0 0010.353 2.303 7.5 7.5 0 002.303-10.354l-9.286-14.599 14.495-16.179 5.055 7.482a7.491 7.491 0 006.222 3.303 7.5 7.5 0 006.208-11.699l-7.164-10.605 13.67-15.257 1.918 2.82a7.492 7.492 0 006.208 3.283 7.5 7.5 0 006.195-11.718l-4.009-5.894.346-.386a9.067 9.067 0 016.745-3.013h38.489a7.5 7.5 0 000-15h-15.784c-.891-18.575-11.168-35.718-27.282-45.197l-2.19-1.289a15.163 15.163 0 00-19.216 3.204l-98.213 114.572-136.132 68.227H86.298a7.5 7.5 0 000 15h23.888L83.251 330.65l-67.306-14.655c3.151-11.709 13.856-20.354 26.546-20.354h11.845a7.5 7.5 0 000-15H42.491C19.062 280.643 0 299.704 0 323.134v40.432c0 12.021 8.106 22.603 19.714 25.732l108.467 29.238c2.206.595 4.484.897 6.771.897H489.63c12.32 0 22.344-10.023 22.344-22.344v-33.194c0-7.322-3.541-13.833-9-17.911zM195.75 261.283l8.379-4.2 1.101 1.627zm24.784-6.726l-2.879-4.252 20.065-10.056 5.034 8.278zm72.22-23.609l-12.61-19.243 16.482-19.228 12.703 19.971zm26.97-30.104l-12.894-20.271 13.481-15.727 13.612 20.15zm24.52-27.367l-13.809-20.441 13.324-15.543 14.121 20.763zm25.134-65.871a.176.176 0 01.222-.038l2.19 1.289c11.553 6.796 18.998 18.99 19.871 32.269h-7.687a24.088 24.088 0 00-15.657 5.804l-14.444-21.237zm-101.53 117.543a7.494 7.494 0 002.123-1.601l9.787 14.935-21.936 5.953-6.647-10.931zM15 363.566v-32.424l110.001 23.952v47.049L23.618 374.815A11.67 11.67 0 0115 363.566zm474.63 40.867H140.001v-16.441H427.92a7.5 7.5 0 000-15H140.001v-16.441H489.63c4.049 0 7.344 3.294 7.344 7.344v9.097h-37.091a7.5 7.5 0 000 15h37.091v9.097c0 4.05-3.295 7.344-7.344 7.344z"
        data-original="#000000"
      ></path>
      <path
        d="M390.822 246.633l-1.132 3.483h-3.663c-5.958 0-11.199 3.807-13.04 9.474s.16 11.828 4.981 15.33l2.963 2.152-1.132 3.483a13.678 13.678 0 004.981 15.33 13.69 13.69 0 008.06 2.627 13.69 13.69 0 008.059-2.626l2.963-2.153 2.963 2.152a13.676 13.676 0 0016.118 0 13.677 13.677 0 004.981-15.33l-1.132-3.483 2.963-2.153c4.821-3.502 6.822-9.663 4.981-15.33s-7.082-9.474-13.04-9.474h-3.663l-1.132-3.483c-1.841-5.667-7.082-9.475-13.04-9.475s-11.197 3.809-13.039 9.476zm26.276 18.483h.632l-.512.372a13.677 13.677 0 00-4.98 15.33l.195.602-.512-.372a13.688 13.688 0 00-8.059-2.627 13.69 13.69 0 00-8.059 2.626l-.512.372.195-.602a13.677 13.677 0 00-4.981-15.33l-.512-.372h.632c5.959 0 11.2-3.808 13.04-9.474l.196-.603.195.601a13.678 13.678 0 0013.042 9.477z"
        data-original="#000000"
      ></path>
      <path
        d="M345.799 267.846c0 32.016 26.047 58.063 58.063 58.063s58.063-26.047 58.063-58.063-26.047-58.063-58.063-58.063-58.063 26.047-58.063 58.063zm101.126 0c0 23.745-19.318 43.063-43.063 43.063s-43.063-19.318-43.063-43.063 19.318-43.063 43.063-43.063 43.063 19.318 43.063 43.063zm-128.537 39.136h-6.466a7.5 7.5 0 000 15h6.466a7.5 7.5 0 000-15zm-47.607 0a7.5 7.5 0 000 15h6.466a7.5 7.5 0 000-15z"
        data-original="#000000"
      ></path>
    </svg>